<?xml version="1.0" encoding="UTF-8"?>
<svg width="262px" height="104px" viewBox="0 0 262 104" version="1.1" xmlns="http://www.w3.org/2000/svg" xmlns:xlink="http://www.w3.org/1999/xlink">
    <!-- Generator: Sketch 46.2 (44496) - http://www.bohemiancoding.com/sketch -->
    <title>Logo white@3x</title>
    <desc>Created with Sketch.</desc>
    <defs></defs>
    <g id="Symbols" stroke="none" stroke-width="1" fill="none" fill-rule="evenodd">
        <g id="Logo-white">
            <g id="Logo-3">
                <path d="M38.448,70 L35.496,63.664 L15.624,63.664 L12.672,70 L0.072,70 L0.072,68.128 L22.752,18.952 L28.296,18.952 L51.048,68.128 L51.048,70 L38.448,70 Z M31.32,52.648 L25.488,39.4 L19.8,52.648 L31.32,52.648 Z M82.08,41.344 L62.352,19.456 L57.6,19.456 L57.6,70 L70.776,70 L70.776,47.536 L81.432,58.768 L82.872,58.768 L93.6,47.536 L93.6,70 L106.776,70 L106.776,19.456 L102.168,19.456 L82.08,41.344 Z M154.872,19.6 L116.712,19.6 L116.712,31.12 L135.432,31.12 L114.84,68.056 L114.84,70 L148.310819,70 L155.088,58.48 L134.208,58.48 L154.872,21.544 L154.872,19.6 Z" id="AMZ-Copy" fill="#FFFFFF"></path>
                <path d="M119.881,95.082 L113.48,95.082 C113.332,106.478 134.422,106.182 134.422,95.304 C134.422,88.829 129.39,88.163 124.247,87.608 C121.916,87.349 119.992,86.942 120.14,84.981 C120.362,81.91 127.318,81.614 127.318,85.055 L133.608,85.055 C133.756,73.881 113.628,73.881 113.85,85.055 C113.924,90.679 117.624,92.603 123.248,93.01 C125.838,93.158 127.984,93.454 127.984,95.267 C127.984,98.301 119.881,98.375 119.881,95.082 Z M137.288254,90.05 C137.325254,98.856 143.985254,103.296 150.571254,103.259 C156.084254,103.259 161.893254,100.373 162.855254,93.047 L156.343254,93.047 C155.640254,95.822 153.383254,97.228 150.571254,97.228 C146.649254,97.191 144.133254,93.861 144.133254,90.05 C144.133254,85.758 146.686254,82.835 150.571254,82.835 C153.346254,82.835 155.307254,84.019 156.232254,86.646 L162.744254,86.646 C161.745254,79.727 155.936254,76.804 150.571254,76.804 C143.985254,76.804 137.325254,81.244 137.288254,90.05 Z M192.326,90.087 C192.326,72.179 165.76,72.179 165.76,90.087 C165.76,108.032 192.326,108.032 192.326,90.087 Z M172.568,90.087 C172.568,99.485 185.555,99.485 185.555,90.087 C185.555,80.763 172.568,80.763 172.568,90.087 Z M205.348,97.413 C203.424,97.413 201.389,96.377 201.389,94.268 L201.389,77.1 L195.062,77.1 L195.062,94.379 C195.062,100.077 200.057,103.37 205.348,103.37 C210.676,103.37 215.671,100.077 215.671,94.379 L215.671,77.1 L209.27,77.1 L209.27,94.268 C209.27,96.377 207.272,97.413 205.348,97.413 Z M224.846,83.02 L224.846,103 L231.395,103 L231.395,83.02 L237.722,83.02 L237.722,77.1 L218.482,77.1 L218.482,83.02 L224.846,83.02 Z" id="scout-copy-2" fill="#FF8E12"></path>
                <path d="M227.724988,26.9188122 L221.778491,-5.32907052e-14 L183.61493,11.9701891 L196.636132,19.1255725 L168,70.6682305 L192.591483,70.6682305 L208.514028,41.7028535 L198.367243,36.1270135 L227.724988,26.9188122 Z" id="Combined-Shape" fill="#FCBD2B"></path>
                <path d="M227.7939,27.035835 L253.413886,19 L261.714394,56.5750334 L249.122806,49.6574754 L237.486687,70.6775765 L210,70.6775765 L210.00492,70.6688112 L213.645588,70.6688112 L224.397804,50.6891009 L234.209813,56.0796151 L227.7939,27.035835 Z" id="Combined-Shape" fill="#FF8E12"></path>
            </g>
        </g>
    </g>
</svg>